<svg id="visual" viewBox="0 0 900 200" width="900" height="200" xmlns="http://www.w3.org/2000/svg" xmlns:xlink="http://www.w3.org/1999/xlink" version="1.1"><rect x="0" y="0" width="900" height="200" fill="#001220"></rect><defs><linearGradient id="grad1_0" x1="77.8%" y1="0%" x2="100%" y2="100%"><stop offset="-40%" stop-color="#001220" stop-opacity="1"></stop><stop offset="140%" stop-color="#001220" stop-opacity="1"></stop></linearGradient></defs><defs><linearGradient id="grad2_0" x1="0%" y1="0%" x2="22.2%" y2="100%"><stop offset="-40%" stop-color="#001220" stop-opacity="1"></stop><stop offset="140%" stop-color="#001220" stop-opacity="1"></stop></linearGradient></defs><g transform="translate(900, 0)"><path d="M0 190C-14.5 180.4 -29 170.9 -45 168.1C-61.1 165.3 -78.8 169.2 -95 164.5C-111.2 159.9 -126 146.6 -128.7 128.7C-131.4 110.8 -121.9 88.4 -130.8 75.5C-139.6 62.6 -166.7 59.1 -179.7 48.1C-192.6 37.1 -191.3 18.6 -190 0L0 0Z" fill="#FBAE3C"></path></g><g transform="translate(0, 200)"><path d="M0 -190C12.1 -168 24.2 -145.9 37 -138.1C49.8 -130.3 63.4 -136.8 80 -138.6C96.6 -140.3 116.3 -137.3 127.3 -127.3C138.2 -117.2 140.5 -100.1 149.8 -86.5C159.2 -72.9 175.6 -63 183.5 -49.2C191.4 -35.4 190.7 -17.7 190 0L0 0Z" fill="#FBAE3C"></path></g></svg>