<svg id="visual" viewBox="0 0 900 200" width="900" height="200" xmlns="http://www.w3.org/2000/svg" xmlns:xlink="http://www.w3.org/1999/xlink" version="1.1"><rect x="0" y="0" width="900" height="200" fill="#9c13b1"></rect><path d="M0 127L129 117L257 141L386 129L514 132L643 137L771 124L900 137L900 201L771 201L643 201L514 201L386 201L257 201L129 201L0 201Z" fill="#d114dd"></path><path d="M0 151L129 136L257 137L386 137L514 150L643 132L771 152L900 156L900 201L771 201L643 201L514 201L386 201L257 201L129 201L0 201Z" fill="#518eff"></path><path d="M0 161L129 150L257 148L386 164L514 152L643 163L771 146L900 149L900 201L771 201L643 201L514 201L386 201L257 201L129 201L0 201Z" fill="#00bcff"></path><path d="M0 161L129 172L257 178L386 178L514 167L643 168L771 167L900 161L900 201L771 201L643 201L514 201L386 201L257 201L129 201L0 201Z" fill="#00dfff"></path><path d="M0 189L129 190L257 174L386 180L514 179L643 176L771 179L900 178L900 201L771 201L643 201L514 201L386 201L257 201L129 201L0 201Z" fill="#00ffff"></path></svg>
