<svg id="visual" viewBox="0 0 900 600" width="900" height="600" xmlns="http://www.w3.org/2000/svg" xmlns:xlink="http://www.w3.org/1999/xlink" version="1.1"><path d="M0 393L21.5 381C43 369 86 345 128.8 335.5C171.7 326 214.3 331 257.2 339C300 347 343 358 385.8 357.7C428.7 357.3 471.3 345.7 514.2 339.8C557 334 600 334 642.8 339.2C685.7 344.3 728.3 354.7 771.2 355.2C814 355.7 857 346.3 878.5 341.7L900 337L900 601L878.5 601C857 601 814 601 771.2 601C728.3 601 685.7 601 642.8 601C600 601 557 601 514.2 601C471.3 601 428.7 601 385.8 601C343 601 300 601 257.2 601C214.3 601 171.7 601 128.8 601C86 601 43 601 21.5 601L0 601Z" fill="#fa69ed"></path><path d="M0 487L21.5 478.3C43 469.7 86 452.3 128.8 440.7C171.7 429 214.3 423 257.2 421.3C300 419.7 343 422.3 385.8 427.5C428.7 432.7 471.3 440.3 514.2 448C557 455.7 600 463.3 642.8 460.5C685.7 457.7 728.3 444.3 771.2 445.3C814 446.3 857 461.7 878.5 469.3L900 477L900 601L878.5 601C857 601 814 601 771.2 601C728.3 601 685.7 601 642.8 601C600 601 557 601 514.2 601C471.3 601 428.7 601 385.8 601C343 601 300 601 257.2 601C214.3 601 171.7 601 128.8 601C86 601 43 601 21.5 601L0 601Z" fill="#b155df"></path><path d="M0 499L21.5 506.2C43 513.3 86 527.7 128.8 535.8C171.7 544 214.3 546 257.2 547.5C300 549 343 550 385.8 541.2C428.7 532.3 471.3 513.7 514.2 504.5C557 495.3 600 495.7 642.8 498.2C685.7 500.7 728.3 505.3 771.2 512.5C814 519.7 857 529.3 878.5 534.2L900 539L900 601L878.5 601C857 601 814 601 771.2 601C728.3 601 685.7 601 642.8 601C600 601 557 601 514.2 601C471.3 601 428.7 601 385.8 601C343 601 300 601 257.2 601C214.3 601 171.7 601 128.8 601C86 601 43 601 21.5 601L0 601Z" fill="#5a46cc"></path></svg>
