<svg id="visual" viewBox="0 0 900 600" width="900" height="600" xmlns="http://www.w3.org/2000/svg" xmlns:xlink="http://www.w3.org/1999/xlink" version="1.1"><path d="M0 139L13.7 139C27.3 139 54.7 139 82 134C109.3 129 136.7 119 163.8 117C191 115 218 121 245.2 115C272.3 109 299.7 91 327 96C354.3 101 381.7 129 409 142C436.3 155 463.7 153 491 148C518.3 143 545.7 135 573 133C600.3 131 627.7 135 654.8 139C682 143 709 147 736.2 146C763.3 145 790.7 139 818 133C845.3 127 872.7 121 886.3 118L900 115L900 0L886.3 0C872.7 0 845.3 0 818 0C790.7 0 763.3 0 736.2 0C709 0 682 0 654.8 0C627.7 0 600.3 0 573 0C545.7 0 518.3 0 491 0C463.7 0 436.3 0 409 0C381.7 0 354.3 0 327 0C299.7 0 272.3 0 245.2 0C218 0 191 0 163.8 0C136.7 0 109.3 0 82 0C54.7 0 27.3 0 13.7 0L0 0Z" fill="#6198ff"></path><path d="M0 235L13.7 247C27.3 259 54.7 283 82 288C109.3 293 136.7 279 163.8 263C191 247 218 229 245.2 215C272.3 201 299.7 191 327 216C354.3 241 381.7 301 409 317C436.3 333 463.7 305 491 284C518.3 263 545.7 249 573 242C600.3 235 627.7 235 654.8 234C682 233 709 231 736.2 241C763.3 251 790.7 273 818 274C845.3 275 872.7 255 886.3 245L900 235L900 113L886.3 116C872.7 119 845.3 125 818 131C790.7 137 763.3 143 736.2 144C709 145 682 141 654.8 137C627.7 133 600.3 129 573 131C545.7 133 518.3 141 491 146C463.7 151 436.3 153 409 140C381.7 127 354.3 99 327 94C299.7 89 272.3 107 245.2 113C218 119 191 113 163.8 115C136.7 117 109.3 127 82 132C54.7 137 27.3 137 13.7 137L0 137Z" fill="#3c80ff"></path><path d="M0 277L13.7 295C27.3 313 54.7 349 82 363C109.3 377 136.7 369 163.8 351C191 333 218 305 245.2 294C272.3 283 299.7 289 327 310C354.3 331 381.7 367 409 378C436.3 389 463.7 375 491 364C518.3 353 545.7 345 573 340C600.3 335 627.7 333 654.8 323C682 313 709 295 736.2 303C763.3 311 790.7 345 818 351C845.3 357 872.7 335 886.3 324L900 313L900 233L886.3 243C872.7 253 845.3 273 818 272C790.7 271 763.3 249 736.2 239C709 229 682 231 654.8 232C627.7 233 600.3 233 573 240C545.7 247 518.3 261 491 282C463.7 303 436.3 331 409 315C381.7 299 354.3 239 327 214C299.7 189 272.3 199 245.2 213C218 227 191 245 163.8 261C136.7 277 109.3 291 82 286C54.7 281 27.3 257 13.7 245L0 233Z" fill="#0066ff"></path><path d="M0 349L13.7 372C27.3 395 54.7 441 82 451C109.3 461 136.7 435 163.8 411C191 387 218 365 245.2 358C272.3 351 299.7 359 327 380C354.3 401 381.7 435 409 448C436.3 461 463.7 453 491 446C518.3 439 545.7 433 573 422C600.3 411 627.7 395 654.8 386C682 377 709 375 736.2 385C763.3 395 790.7 417 818 420C845.3 423 872.7 407 886.3 399L900 391L900 311L886.3 322C872.7 333 845.3 355 818 349C790.7 343 763.3 309 736.2 301C709 293 682 311 654.8 321C627.7 331 600.3 333 573 338C545.7 343 518.3 351 491 362C463.7 373 436.3 387 409 376C381.7 365 354.3 329 327 308C299.7 287 272.3 281 245.2 292C218 303 191 331 163.8 349C136.7 367 109.3 375 82 361C54.7 347 27.3 311 13.7 293L0 275Z" fill="#0059dd"></path><path d="M0 601L13.7 601C27.3 601 54.7 601 82 601C109.3 601 136.7 601 163.8 601C191 601 218 601 245.2 601C272.3 601 299.7 601 327 601C354.3 601 381.7 601 409 601C436.3 601 463.7 601 491 601C518.3 601 545.7 601 573 601C600.3 601 627.7 601 654.8 601C682 601 709 601 736.2 601C763.3 601 790.7 601 818 601C845.3 601 872.7 601 886.3 601L900 601L900 389L886.3 397C872.7 405 845.3 421 818 418C790.7 415 763.3 393 736.2 383C709 373 682 375 654.8 384C627.7 393 600.3 409 573 420C545.7 431 518.3 437 491 444C463.7 451 436.3 459 409 446C381.7 433 354.3 399 327 378C299.7 357 272.3 349 245.2 356C218 363 191 385 163.8 409C136.7 433 109.3 459 82 449C54.7 439 27.3 393 13.7 370L0 347Z" fill="#004cbb"></path></svg>
