<svg width="32px" height="32px" viewBox="0 0 32 32" enable-background="new 0 0 32 32"><g><path d="M14,7c0,0.55,0.45,1,1,1h2c0.55,0,1-0.45,1-1V5c0-0.55-0.45-1-1-1h-2c-0.55,0-1,0.45-1,1V7z"/><path d="M17,9h-2c-1.103,0-2-0.897-2-2V5c0-1.103,0.897-2,2-2h2c1.103,0,2,0.897,2,2v2C19,8.103,18.103,9,17,9z M17,7v1V7L17,7     L17,7z M15,5v2h1.997L17,5H15z"/></g><g><path d="M14,17c0,0.55,0.45,1,1,1h2c0.55,0,1-0.45,1-1v-2c0-0.55-0.45-1-1-1h-2c-0.55,0-1,0.45-1,1V17z"/><path d="M17,19h-2c-1.103,0-2-0.897-2-2v-2c0-1.103,0.897-2,2-2h2c1.103,0,2,0.897,2,2v2C19,18.103,18.103,19,17,19z M17,17v1V17     L17,17L17,17z M15,15v2h1.997L17,15H15z"/></g><g><path d="M14,27c0,0.55,0.45,1,1,1h2c0.55,0,1-0.45,1-1v-2c0-0.55-0.45-1-1-1h-2c-0.55,0-1,0.45-1,1V27z"/><path d="M17,29h-2c-1.103,0-2-0.897-2-2v-2c0-1.103,0.897-2,2-2h2c1.103,0,2,0.897,2,2v2C19,28.103,18.103,29,17,29z M17,27v1V27     L17,27L17,27z M15,25v2h1.997L17,25H15z"/></g></svg>
